<mxfile host="app.diagrams.net" modified="2024-05-23T18:40:15.980Z" agent="Mozilla/5.0 (X11; Linux x86_64) AppleWebKit/537.36 (KHTML, like Gecko) Chrome/125.0.0.0 Safari/537.36" etag="9WFfAAkxfXxOjdRJiKPW" version="24.4.6" type="github" pages="4">
  <diagram id="YlOzQZMVUzbt7353DlCQ" name="BPMN">
    <mxGraphModel dx="1368" dy="754" grid="1" gridSize="10" guides="1" tooltips="1" connect="1" arrows="1" fold="1" page="1" pageScale="1" pageWidth="827" pageHeight="1169" math="0" shadow="0">
      <root>
        <mxCell id="0" />
        <mxCell id="1" parent="0" />
        <mxCell id="DMLxI7I7hUfZIIsoB76Q-7" value="" style="edgeStyle=orthogonalEdgeStyle;rounded=0;orthogonalLoop=1;jettySize=auto;html=1;fillColor=#dae8fc;strokeColor=#6c8ebf;" edge="1" parent="1" source="DMLxI7I7hUfZIIsoB76Q-1">
          <mxGeometry relative="1" as="geometry">
            <mxPoint x="400" y="250" as="targetPoint" />
          </mxGeometry>
        </mxCell>
        <mxCell id="DMLxI7I7hUfZIIsoB76Q-11" value="" style="edgeStyle=orthogonalEdgeStyle;rounded=0;orthogonalLoop=1;jettySize=auto;html=1;fillColor=#dae8fc;strokeColor=#6c8ebf;" edge="1" parent="1" source="DMLxI7I7hUfZIIsoB76Q-1" target="DMLxI7I7hUfZIIsoB76Q-10">
          <mxGeometry relative="1" as="geometry" />
        </mxCell>
        <mxCell id="DMLxI7I7hUfZIIsoB76Q-19" value="" style="edgeStyle=orthogonalEdgeStyle;rounded=0;orthogonalLoop=1;jettySize=auto;html=1;" edge="1" parent="1" source="DMLxI7I7hUfZIIsoB76Q-1" target="DMLxI7I7hUfZIIsoB76Q-18">
          <mxGeometry relative="1" as="geometry" />
        </mxCell>
        <mxCell id="DMLxI7I7hUfZIIsoB76Q-21" value="" style="edgeStyle=orthogonalEdgeStyle;rounded=0;orthogonalLoop=1;jettySize=auto;html=1;" edge="1" parent="1" source="DMLxI7I7hUfZIIsoB76Q-1" target="DMLxI7I7hUfZIIsoB76Q-20">
          <mxGeometry relative="1" as="geometry" />
        </mxCell>
        <mxCell id="DMLxI7I7hUfZIIsoB76Q-1" value="User Registration and Authentication" style="rounded=1;whiteSpace=wrap;html=1;fillColor=#dae8fc;strokeColor=#6c8ebf;" vertex="1" parent="1">
          <mxGeometry x="340" y="140" width="120" height="60" as="geometry" />
        </mxCell>
        <mxCell id="DMLxI7I7hUfZIIsoB76Q-9" value="" style="edgeStyle=orthogonalEdgeStyle;rounded=0;orthogonalLoop=1;jettySize=auto;html=1;" edge="1" parent="1" source="DMLxI7I7hUfZIIsoB76Q-2" target="DMLxI7I7hUfZIIsoB76Q-1">
          <mxGeometry relative="1" as="geometry" />
        </mxCell>
        <mxCell id="DMLxI7I7hUfZIIsoB76Q-2" value="Start" style="ellipse;whiteSpace=wrap;html=1;aspect=fixed;" vertex="1" parent="1">
          <mxGeometry x="360" y="10" width="80" height="80" as="geometry" />
        </mxCell>
        <mxCell id="DMLxI7I7hUfZIIsoB76Q-13" value="" style="edgeStyle=orthogonalEdgeStyle;rounded=0;orthogonalLoop=1;jettySize=auto;html=1;fillColor=#dae8fc;strokeColor=#6c8ebf;" edge="1" parent="1" source="DMLxI7I7hUfZIIsoB76Q-10" target="DMLxI7I7hUfZIIsoB76Q-12">
          <mxGeometry relative="1" as="geometry" />
        </mxCell>
        <mxCell id="DMLxI7I7hUfZIIsoB76Q-23" value="" style="edgeStyle=orthogonalEdgeStyle;rounded=0;orthogonalLoop=1;jettySize=auto;html=1;" edge="1" parent="1" source="DMLxI7I7hUfZIIsoB76Q-10" target="DMLxI7I7hUfZIIsoB76Q-22">
          <mxGeometry relative="1" as="geometry" />
        </mxCell>
        <mxCell id="DMLxI7I7hUfZIIsoB76Q-25" value="" style="edgeStyle=orthogonalEdgeStyle;rounded=0;orthogonalLoop=1;jettySize=auto;html=1;" edge="1" parent="1" source="DMLxI7I7hUfZIIsoB76Q-10" target="DMLxI7I7hUfZIIsoB76Q-24">
          <mxGeometry relative="1" as="geometry" />
        </mxCell>
        <mxCell id="DMLxI7I7hUfZIIsoB76Q-10" value="Application Form Submission" style="whiteSpace=wrap;html=1;rounded=1;fillColor=#dae8fc;strokeColor=#6c8ebf;" vertex="1" parent="1">
          <mxGeometry x="340" y="280" width="120" height="60" as="geometry" />
        </mxCell>
        <mxCell id="DMLxI7I7hUfZIIsoB76Q-15" value="" style="edgeStyle=orthogonalEdgeStyle;rounded=0;orthogonalLoop=1;jettySize=auto;html=1;fillColor=#dae8fc;strokeColor=#6c8ebf;" edge="1" parent="1" source="DMLxI7I7hUfZIIsoB76Q-12" target="DMLxI7I7hUfZIIsoB76Q-14">
          <mxGeometry relative="1" as="geometry" />
        </mxCell>
        <mxCell id="DMLxI7I7hUfZIIsoB76Q-27" value="" style="edgeStyle=orthogonalEdgeStyle;rounded=0;orthogonalLoop=1;jettySize=auto;html=1;" edge="1" parent="1" source="DMLxI7I7hUfZIIsoB76Q-12" target="DMLxI7I7hUfZIIsoB76Q-26">
          <mxGeometry relative="1" as="geometry" />
        </mxCell>
        <mxCell id="DMLxI7I7hUfZIIsoB76Q-29" value="" style="edgeStyle=orthogonalEdgeStyle;rounded=0;orthogonalLoop=1;jettySize=auto;html=1;" edge="1" parent="1" source="DMLxI7I7hUfZIIsoB76Q-12" target="DMLxI7I7hUfZIIsoB76Q-28">
          <mxGeometry relative="1" as="geometry" />
        </mxCell>
        <mxCell id="DMLxI7I7hUfZIIsoB76Q-12" value="Application Review" style="whiteSpace=wrap;html=1;rounded=1;fillColor=#dae8fc;strokeColor=#6c8ebf;" vertex="1" parent="1">
          <mxGeometry x="340" y="420" width="120" height="60" as="geometry" />
        </mxCell>
        <mxCell id="DMLxI7I7hUfZIIsoB76Q-17" value="" style="edgeStyle=orthogonalEdgeStyle;rounded=0;orthogonalLoop=1;jettySize=auto;html=1;fillColor=#dae8fc;strokeColor=#6c8ebf;" edge="1" parent="1" source="DMLxI7I7hUfZIIsoB76Q-14" target="DMLxI7I7hUfZIIsoB76Q-16">
          <mxGeometry relative="1" as="geometry" />
        </mxCell>
        <mxCell id="DMLxI7I7hUfZIIsoB76Q-31" value="" style="edgeStyle=orthogonalEdgeStyle;rounded=0;orthogonalLoop=1;jettySize=auto;html=1;" edge="1" parent="1" source="DMLxI7I7hUfZIIsoB76Q-14" target="DMLxI7I7hUfZIIsoB76Q-30">
          <mxGeometry relative="1" as="geometry" />
        </mxCell>
        <mxCell id="DMLxI7I7hUfZIIsoB76Q-33" value="" style="edgeStyle=orthogonalEdgeStyle;rounded=0;orthogonalLoop=1;jettySize=auto;html=1;" edge="1" parent="1" source="DMLxI7I7hUfZIIsoB76Q-14" target="DMLxI7I7hUfZIIsoB76Q-32">
          <mxGeometry relative="1" as="geometry" />
        </mxCell>
        <mxCell id="DMLxI7I7hUfZIIsoB76Q-14" value="Admission Decision" style="whiteSpace=wrap;html=1;rounded=1;fillColor=#dae8fc;strokeColor=#6c8ebf;" vertex="1" parent="1">
          <mxGeometry x="340" y="560" width="120" height="60" as="geometry" />
        </mxCell>
        <mxCell id="DMLxI7I7hUfZIIsoB76Q-35" value="" style="edgeStyle=orthogonalEdgeStyle;rounded=0;orthogonalLoop=1;jettySize=auto;html=1;" edge="1" parent="1" source="DMLxI7I7hUfZIIsoB76Q-16" target="DMLxI7I7hUfZIIsoB76Q-34">
          <mxGeometry relative="1" as="geometry" />
        </mxCell>
        <mxCell id="DMLxI7I7hUfZIIsoB76Q-37" value="" style="edgeStyle=orthogonalEdgeStyle;rounded=0;orthogonalLoop=1;jettySize=auto;html=1;" edge="1" parent="1" source="DMLxI7I7hUfZIIsoB76Q-16" target="DMLxI7I7hUfZIIsoB76Q-36">
          <mxGeometry relative="1" as="geometry" />
        </mxCell>
        <mxCell id="DMLxI7I7hUfZIIsoB76Q-39" value="" style="edgeStyle=orthogonalEdgeStyle;rounded=0;orthogonalLoop=1;jettySize=auto;html=1;" edge="1" parent="1" source="DMLxI7I7hUfZIIsoB76Q-16" target="DMLxI7I7hUfZIIsoB76Q-38">
          <mxGeometry relative="1" as="geometry" />
        </mxCell>
        <mxCell id="DMLxI7I7hUfZIIsoB76Q-16" value="Admission Notification" style="whiteSpace=wrap;html=1;rounded=1;fillColor=#dae8fc;strokeColor=#6c8ebf;" vertex="1" parent="1">
          <mxGeometry x="340" y="700" width="120" height="60" as="geometry" />
        </mxCell>
        <mxCell id="DMLxI7I7hUfZIIsoB76Q-18" value="New application need to register and aunthenticate" style="whiteSpace=wrap;html=1;rounded=1;fillColor=#d5e8d4;strokeColor=#82b366;" vertex="1" parent="1">
          <mxGeometry x="540" y="140" width="120" height="60" as="geometry" />
        </mxCell>
        <mxCell id="DMLxI7I7hUfZIIsoB76Q-20" value="Authentication Service" style="whiteSpace=wrap;html=1;rounded=1;fillColor=#f8cecc;strokeColor=#b85450;" vertex="1" parent="1">
          <mxGeometry x="140" y="140" width="120" height="60" as="geometry" />
        </mxCell>
        <mxCell id="DMLxI7I7hUfZIIsoB76Q-22" value="Receive the personal and academic information" style="whiteSpace=wrap;html=1;rounded=1;fillColor=#d5e8d4;strokeColor=#82b366;" vertex="1" parent="1">
          <mxGeometry x="540" y="280" width="120" height="60" as="geometry" />
        </mxCell>
        <mxCell id="DMLxI7I7hUfZIIsoB76Q-24" value="Database" style="whiteSpace=wrap;html=1;rounded=1;fillColor=#f8cecc;strokeColor=#b85450;" vertex="1" parent="1">
          <mxGeometry x="140" y="280" width="120" height="60" as="geometry" />
        </mxCell>
        <mxCell id="DMLxI7I7hUfZIIsoB76Q-26" value="Reviewers evaluate the submitted application" style="whiteSpace=wrap;html=1;rounded=1;fillColor=#d5e8d4;strokeColor=#82b366;" vertex="1" parent="1">
          <mxGeometry x="540" y="420" width="120" height="60" as="geometry" />
        </mxCell>
        <mxCell id="DMLxI7I7hUfZIIsoB76Q-28" value="Reviewer Assigment system (Admin Portal Web App)" style="whiteSpace=wrap;html=1;rounded=1;fillColor=#f8cecc;strokeColor=#b85450;" vertex="1" parent="1">
          <mxGeometry x="140" y="420" width="120" height="60" as="geometry" />
        </mxCell>
        <mxCell id="DMLxI7I7hUfZIIsoB76Q-30" value="Admission Commitee Makes decision based on reviews" style="whiteSpace=wrap;html=1;rounded=1;fillColor=#d5e8d4;strokeColor=#82b366;" vertex="1" parent="1">
          <mxGeometry x="540" y="560" width="120" height="60" as="geometry" />
        </mxCell>
        <mxCell id="DMLxI7I7hUfZIIsoB76Q-32" value="Decision Support System (Admin Portal / web App)" style="whiteSpace=wrap;html=1;rounded=1;fillColor=#f8cecc;strokeColor=#b85450;" vertex="1" parent="1">
          <mxGeometry x="140" y="560" width="120" height="60" as="geometry" />
        </mxCell>
        <mxCell id="DMLxI7I7hUfZIIsoB76Q-34" value="Applicants receive notification about admission status" style="whiteSpace=wrap;html=1;rounded=1;fillColor=#d5e8d4;strokeColor=#82b366;" vertex="1" parent="1">
          <mxGeometry x="540" y="700" width="120" height="60" as="geometry" />
        </mxCell>
        <mxCell id="DMLxI7I7hUfZIIsoB76Q-36" value="Notificaiton Service (Email Service)" style="whiteSpace=wrap;html=1;rounded=1;fillColor=#f8cecc;strokeColor=#b85450;" vertex="1" parent="1">
          <mxGeometry x="140" y="700" width="120" height="60" as="geometry" />
        </mxCell>
        <mxCell id="DMLxI7I7hUfZIIsoB76Q-38" value="End" style="ellipse;whiteSpace=wrap;html=1;rounded=1;" vertex="1" parent="1">
          <mxGeometry x="360" y="830" width="80" height="80" as="geometry" />
        </mxCell>
        <mxCell id="DMLxI7I7hUfZIIsoB76Q-40" value="Use Case" style="whiteSpace=wrap;html=1;rounded=1;fillColor=#d5e8d4;strokeColor=#82b366;" vertex="1" parent="1">
          <mxGeometry x="560" y="990" width="120" height="60" as="geometry" />
        </mxCell>
        <mxCell id="DMLxI7I7hUfZIIsoB76Q-41" value="Process" style="whiteSpace=wrap;html=1;rounded=1;fillColor=#dae8fc;strokeColor=#6c8ebf;" vertex="1" parent="1">
          <mxGeometry x="340" y="990" width="120" height="60" as="geometry" />
        </mxCell>
        <mxCell id="DMLxI7I7hUfZIIsoB76Q-42" value="Service in Use" style="whiteSpace=wrap;html=1;rounded=1;fillColor=#f8cecc;strokeColor=#b85450;" vertex="1" parent="1">
          <mxGeometry x="140" y="990" width="120" height="60" as="geometry" />
        </mxCell>
      </root>
    </mxGraphModel>
  </diagram>
  <diagram id="M8fQZ1Fo5XgVi32tmQeU" name="DFD">
    <mxGraphModel dx="1303" dy="718" grid="1" gridSize="10" guides="1" tooltips="1" connect="1" arrows="1" fold="1" page="1" pageScale="1" pageWidth="827" pageHeight="1169" math="0" shadow="0">
      <root>
        <mxCell id="bVHdNsz0KWSQvc3xRIcT-0" />
        <mxCell id="bVHdNsz0KWSQvc3xRIcT-1" parent="bVHdNsz0KWSQvc3xRIcT-0" />
        <mxCell id="P-u2qsZgEJolO6gB0ZuT-28" value="Data Center (Protected)" style="html=1;fontColor=#FF3333;fontStyle=1;align=left;verticalAlign=top;spacing=0;labelBorderColor=none;fillColor=none;dashed=1;strokeWidth=2;strokeColor=#FF3333;spacingLeft=4;spacingTop=-3;" vertex="1" parent="bVHdNsz0KWSQvc3xRIcT-1">
          <mxGeometry x="711" y="100" width="756" height="820" as="geometry" />
        </mxCell>
        <mxCell id="bVHdNsz0KWSQvc3xRIcT-3" value="User&#39;s Machine" style="html=1;fontColor=#FF3333;fontStyle=1;align=left;verticalAlign=top;spacing=0;labelBorderColor=none;fillColor=none;dashed=1;strokeWidth=2;strokeColor=#FF3333;spacingLeft=4;spacingTop=-3;" parent="bVHdNsz0KWSQvc3xRIcT-1" vertex="1">
          <mxGeometry x="254.5" y="456.5" width="175" height="140" as="geometry" />
        </mxCell>
        <mxCell id="bVHdNsz0KWSQvc3xRIcT-4" value="User&#39;s Network" style="html=1;fontColor=#FF3333;fontStyle=1;align=left;verticalAlign=top;spacing=0;labelBorderColor=none;fillColor=none;dashed=1;strokeWidth=2;strokeColor=#FF3333;spacingLeft=4;spacingTop=-3;" parent="bVHdNsz0KWSQvc3xRIcT-1" vertex="1">
          <mxGeometry x="209.5" y="421.5" width="270" height="215" as="geometry" />
        </mxCell>
        <mxCell id="bVHdNsz0KWSQvc3xRIcT-5" value="Internet" style="html=1;fontColor=#FF3333;fontStyle=1;align=left;verticalAlign=top;spacing=0;labelBorderColor=none;fillColor=none;dashed=1;strokeWidth=2;strokeColor=#FF3333;spacingLeft=4;spacingTop=-3;" parent="bVHdNsz0KWSQvc3xRIcT-1" vertex="1">
          <mxGeometry x="165" y="276.5" width="360" height="480" as="geometry" />
        </mxCell>
        <mxCell id="bVHdNsz0KWSQvc3xRIcT-2" value="User" style="rounded=0;whiteSpace=wrap;html=1;" parent="bVHdNsz0KWSQvc3xRIcT-1" vertex="1">
          <mxGeometry x="279.5" y="516.5" width="120" height="60" as="geometry" />
        </mxCell>
        <mxCell id="bVHdNsz0KWSQvc3xRIcT-7" value="Admission Portal" style="ellipse;whiteSpace=wrap;html=1;aspect=fixed;" parent="bVHdNsz0KWSQvc3xRIcT-1" vertex="1">
          <mxGeometry x="737" y="432.5" width="80" height="80" as="geometry" />
        </mxCell>
        <mxCell id="bVHdNsz0KWSQvc3xRIcT-8" value="Application&lt;br&gt;Processor" style="ellipse;whiteSpace=wrap;html=1;aspect=fixed;" parent="bVHdNsz0KWSQvc3xRIcT-1" vertex="1">
          <mxGeometry x="857" y="432.5" width="80" height="80" as="geometry" />
        </mxCell>
        <mxCell id="bVHdNsz0KWSQvc3xRIcT-10" value="Data Access" style="ellipse;whiteSpace=wrap;html=1;aspect=fixed;" parent="bVHdNsz0KWSQvc3xRIcT-1" vertex="1">
          <mxGeometry x="977" y="432.5" width="80" height="80" as="geometry" />
        </mxCell>
        <mxCell id="bVHdNsz0KWSQvc3xRIcT-11" value="Data Logger" style="ellipse;whiteSpace=wrap;html=1;aspect=fixed;" parent="bVHdNsz0KWSQvc3xRIcT-1" vertex="1">
          <mxGeometry x="977" y="325" width="80" height="80" as="geometry" />
        </mxCell>
        <mxCell id="bVHdNsz0KWSQvc3xRIcT-12" value="Data Center (Restricted)" style="html=1;fontColor=#FF3333;fontStyle=1;align=left;verticalAlign=top;spacing=0;labelBorderColor=none;fillColor=none;dashed=1;strokeWidth=2;strokeColor=#FF3333;spacingLeft=4;spacingTop=-3;" parent="bVHdNsz0KWSQvc3xRIcT-1" vertex="1">
          <mxGeometry x="1084" y="117.5" width="333" height="785" as="geometry" />
        </mxCell>
        <mxCell id="bVHdNsz0KWSQvc3xRIcT-13" value="Admission" style="shape=partialRectangle;whiteSpace=wrap;html=1;left=0;right=0;fillColor=none;" parent="bVHdNsz0KWSQvc3xRIcT-1" vertex="1">
          <mxGeometry x="1177" y="457.5" width="120" height="30" as="geometry" />
        </mxCell>
        <mxCell id="bVHdNsz0KWSQvc3xRIcT-14" value="Inventory" style="shape=partialRectangle;whiteSpace=wrap;html=1;left=0;right=0;fillColor=none;" parent="bVHdNsz0KWSQvc3xRIcT-1" vertex="1">
          <mxGeometry x="1177" y="392.5" width="120" height="30" as="geometry" />
        </mxCell>
        <mxCell id="bVHdNsz0KWSQvc3xRIcT-15" value="Audit Log" style="shape=partialRectangle;whiteSpace=wrap;html=1;left=0;right=0;fillColor=none;" parent="bVHdNsz0KWSQvc3xRIcT-1" vertex="1">
          <mxGeometry x="1177" y="327.5" width="120" height="30" as="geometry" />
        </mxCell>
        <mxCell id="bVHdNsz0KWSQvc3xRIcT-16" value="Payments API" style="ellipse;whiteSpace=wrap;html=1;aspect=fixed;" parent="bVHdNsz0KWSQvc3xRIcT-1" vertex="1">
          <mxGeometry x="737" y="152.5" width="80" height="80" as="geometry" />
        </mxCell>
        <mxCell id="bVHdNsz0KWSQvc3xRIcT-17" value="Payment Partner" style="rounded=0;whiteSpace=wrap;html=1;" parent="bVHdNsz0KWSQvc3xRIcT-1" vertex="1">
          <mxGeometry x="369.5" y="326.5" width="120" height="60" as="geometry" />
        </mxCell>
        <mxCell id="bVHdNsz0KWSQvc3xRIcT-18" value="&lt;font color=&quot;#000000&quot;&gt;HTTPS&lt;/font&gt;" style="endArrow=classic;startArrow=classic;html=1;fontColor=#FF3333;edgeStyle=orthogonalEdgeStyle;elbow=vertical;curved=1;" parent="bVHdNsz0KWSQvc3xRIcT-1" source="bVHdNsz0KWSQvc3xRIcT-16" target="bVHdNsz0KWSQvc3xRIcT-17" edge="1">
          <mxGeometry width="50" height="50" relative="1" as="geometry">
            <mxPoint x="377" y="642.5" as="sourcePoint" />
            <mxPoint x="427" y="592.5" as="targetPoint" />
          </mxGeometry>
        </mxCell>
        <mxCell id="bVHdNsz0KWSQvc3xRIcT-19" value="" style="endArrow=classic;startArrow=classic;html=1;fontColor=#FF3333;edgeStyle=orthogonalEdgeStyle;elbow=vertical;curved=1;entryX=0;entryY=0.5;entryDx=0;entryDy=0;" parent="bVHdNsz0KWSQvc3xRIcT-1" source="bVHdNsz0KWSQvc3xRIcT-2" target="P-u2qsZgEJolO6gB0ZuT-0" edge="1">
          <mxGeometry width="50" height="50" relative="1" as="geometry">
            <mxPoint x="627" y="592.5" as="sourcePoint" />
            <mxPoint x="377" y="522.5" as="targetPoint" />
          </mxGeometry>
        </mxCell>
        <mxCell id="bVHdNsz0KWSQvc3xRIcT-37" value="HTTPS" style="text;html=1;resizable=0;points=[];align=center;verticalAlign=middle;labelBackgroundColor=#ffffff;" parent="bVHdNsz0KWSQvc3xRIcT-19" vertex="1" connectable="0">
          <mxGeometry x="-0.1886" y="-2" relative="1" as="geometry">
            <mxPoint x="1" as="offset" />
          </mxGeometry>
        </mxCell>
        <mxCell id="bVHdNsz0KWSQvc3xRIcT-20" value="" style="endArrow=classic;startArrow=classic;html=1;edgeStyle=orthogonalEdgeStyle;elbow=vertical;curved=1;" parent="bVHdNsz0KWSQvc3xRIcT-1" source="bVHdNsz0KWSQvc3xRIcT-7" target="bVHdNsz0KWSQvc3xRIcT-8" edge="1">
          <mxGeometry width="50" height="50" relative="1" as="geometry">
            <mxPoint x="327" y="572.5" as="sourcePoint" />
            <mxPoint x="377" y="522.5" as="targetPoint" />
          </mxGeometry>
        </mxCell>
        <mxCell id="bVHdNsz0KWSQvc3xRIcT-21" value="" style="endArrow=classic;startArrow=classic;html=1;edgeStyle=orthogonalEdgeStyle;elbow=vertical;curved=1;" parent="bVHdNsz0KWSQvc3xRIcT-1" source="bVHdNsz0KWSQvc3xRIcT-8" target="bVHdNsz0KWSQvc3xRIcT-10" edge="1">
          <mxGeometry width="50" height="50" relative="1" as="geometry">
            <mxPoint x="327" y="572.5" as="sourcePoint" />
            <mxPoint x="377" y="522.5" as="targetPoint" />
          </mxGeometry>
        </mxCell>
        <mxCell id="bVHdNsz0KWSQvc3xRIcT-22" value="" style="endArrow=classic;startArrow=classic;html=1;fontColor=#FF3333;edgeStyle=orthogonalEdgeStyle;elbow=vertical;curved=1;exitX=0;exitY=0;exitDx=0;exitDy=0;" parent="bVHdNsz0KWSQvc3xRIcT-1" source="bVHdNsz0KWSQvc3xRIcT-8" target="bVHdNsz0KWSQvc3xRIcT-16" edge="1">
          <mxGeometry width="50" height="50" relative="1" as="geometry">
            <mxPoint x="327" y="572.5" as="sourcePoint" />
            <mxPoint x="377" y="522.5" as="targetPoint" />
            <Array as="points">
              <mxPoint x="869" y="392.5" />
              <mxPoint x="777" y="392.5" />
            </Array>
          </mxGeometry>
        </mxCell>
        <mxCell id="bVHdNsz0KWSQvc3xRIcT-23" value="" style="endArrow=classic;startArrow=classic;html=1;fontColor=#FF3333;edgeStyle=orthogonalEdgeStyle;elbow=vertical;curved=1;exitX=1;exitY=0;exitDx=0;exitDy=0;" parent="bVHdNsz0KWSQvc3xRIcT-1" source="bVHdNsz0KWSQvc3xRIcT-8" target="bVHdNsz0KWSQvc3xRIcT-11" edge="1">
          <mxGeometry width="50" height="50" relative="1" as="geometry">
            <mxPoint x="327" y="572.5" as="sourcePoint" />
            <mxPoint x="377" y="522.5" as="targetPoint" />
            <Array as="points">
              <mxPoint x="947" y="444.5" />
              <mxPoint x="947" y="365.5" />
            </Array>
          </mxGeometry>
        </mxCell>
        <mxCell id="bVHdNsz0KWSQvc3xRIcT-24" value="" style="endArrow=classic;html=1;fontColor=#FF3333;edgeStyle=orthogonalEdgeStyle;elbow=vertical;curved=1;" parent="bVHdNsz0KWSQvc3xRIcT-1" source="bVHdNsz0KWSQvc3xRIcT-11" target="bVHdNsz0KWSQvc3xRIcT-15" edge="1">
          <mxGeometry width="50" height="50" relative="1" as="geometry">
            <mxPoint x="327" y="572.5" as="sourcePoint" />
            <mxPoint x="377" y="522.5" as="targetPoint" />
          </mxGeometry>
        </mxCell>
        <mxCell id="bVHdNsz0KWSQvc3xRIcT-25" value="" style="endArrow=classic;startArrow=classic;html=1;fontColor=#FF3333;edgeStyle=orthogonalEdgeStyle;elbow=vertical;curved=1;entryX=0;entryY=0.5;entryDx=0;entryDy=0;" parent="bVHdNsz0KWSQvc3xRIcT-1" source="bVHdNsz0KWSQvc3xRIcT-10" target="bVHdNsz0KWSQvc3xRIcT-14" edge="1">
          <mxGeometry width="50" height="50" relative="1" as="geometry">
            <mxPoint x="327" y="572.5" as="sourcePoint" />
            <mxPoint x="377" y="522.5" as="targetPoint" />
          </mxGeometry>
        </mxCell>
        <mxCell id="bVHdNsz0KWSQvc3xRIcT-27" value="Users API" style="ellipse;whiteSpace=wrap;html=1;aspect=fixed;" parent="bVHdNsz0KWSQvc3xRIcT-1" vertex="1">
          <mxGeometry x="857" y="247.5" width="80" height="80" as="geometry" />
        </mxCell>
        <mxCell id="bVHdNsz0KWSQvc3xRIcT-28" value="" style="endArrow=classic;startArrow=classic;html=1;fontColor=#FF3333;edgeStyle=orthogonalEdgeStyle;elbow=vertical;curved=1;exitX=0.5;exitY=1;exitDx=0;exitDy=0;entryX=0.5;entryY=0;entryDx=0;entryDy=0;" parent="bVHdNsz0KWSQvc3xRIcT-1" source="bVHdNsz0KWSQvc3xRIcT-27" target="bVHdNsz0KWSQvc3xRIcT-8" edge="1">
          <mxGeometry width="50" height="50" relative="1" as="geometry">
            <mxPoint x="327" y="602.5" as="sourcePoint" />
            <mxPoint x="377" y="552.5" as="targetPoint" />
            <Array as="points" />
          </mxGeometry>
        </mxCell>
        <mxCell id="bVHdNsz0KWSQvc3xRIcT-29" value="Users" style="shape=partialRectangle;whiteSpace=wrap;html=1;left=0;right=0;fillColor=none;" parent="bVHdNsz0KWSQvc3xRIcT-1" vertex="1">
          <mxGeometry x="1177" y="262.5" width="120" height="30" as="geometry" />
        </mxCell>
        <mxCell id="bVHdNsz0KWSQvc3xRIcT-30" value="" style="endArrow=classic;startArrow=classic;html=1;fontColor=#FF3333;edgeStyle=orthogonalEdgeStyle;elbow=vertical;curved=1;exitX=1;exitY=0;exitDx=0;exitDy=0;" parent="bVHdNsz0KWSQvc3xRIcT-1" source="bVHdNsz0KWSQvc3xRIcT-27" target="bVHdNsz0KWSQvc3xRIcT-29" edge="1">
          <mxGeometry width="50" height="50" relative="1" as="geometry">
            <mxPoint x="327" y="602.5" as="sourcePoint" />
            <mxPoint x="377" y="552.5" as="targetPoint" />
            <Array as="points" />
          </mxGeometry>
        </mxCell>
        <mxCell id="bVHdNsz0KWSQvc3xRIcT-31" value="" style="endArrow=classic;startArrow=classic;html=1;fontColor=#FF3333;edgeStyle=orthogonalEdgeStyle;elbow=vertical;curved=1;" parent="bVHdNsz0KWSQvc3xRIcT-1" source="bVHdNsz0KWSQvc3xRIcT-10" target="bVHdNsz0KWSQvc3xRIcT-13" edge="1">
          <mxGeometry width="50" height="50" relative="1" as="geometry">
            <mxPoint x="327" y="602.5" as="sourcePoint" />
            <mxPoint x="377" y="552.5" as="targetPoint" />
          </mxGeometry>
        </mxCell>
        <mxCell id="bVHdNsz0KWSQvc3xRIcT-32" value="Payments" style="shape=partialRectangle;whiteSpace=wrap;html=1;left=0;right=0;fillColor=none;" parent="bVHdNsz0KWSQvc3xRIcT-1" vertex="1">
          <mxGeometry x="1177" y="177.5" width="120" height="30" as="geometry" />
        </mxCell>
        <mxCell id="bVHdNsz0KWSQvc3xRIcT-33" value="" style="endArrow=classic;startArrow=classic;html=1;fontColor=#FF3333;edgeStyle=orthogonalEdgeStyle;elbow=vertical;curved=1;" parent="bVHdNsz0KWSQvc3xRIcT-1" source="bVHdNsz0KWSQvc3xRIcT-16" target="bVHdNsz0KWSQvc3xRIcT-32" edge="1">
          <mxGeometry width="50" height="50" relative="1" as="geometry">
            <mxPoint x="327" y="602.5" as="sourcePoint" />
            <mxPoint x="377" y="552.5" as="targetPoint" />
          </mxGeometry>
        </mxCell>
        <mxCell id="bVHdNsz0KWSQvc3xRIcT-34" value="" style="endArrow=classic;html=1;fontColor=#FF3333;edgeStyle=orthogonalEdgeStyle;elbow=vertical;curved=1;exitX=1;exitY=0.5;exitDx=0;exitDy=0;entryX=0;entryY=0.5;entryDx=0;entryDy=0;" parent="bVHdNsz0KWSQvc3xRIcT-1" source="bVHdNsz0KWSQvc3xRIcT-27" target="bVHdNsz0KWSQvc3xRIcT-15" edge="1">
          <mxGeometry width="50" height="50" relative="1" as="geometry">
            <mxPoint x="327" y="602.5" as="sourcePoint" />
            <mxPoint x="1167" y="342.5" as="targetPoint" />
            <Array as="points">
              <mxPoint x="937" y="292.5" />
              <mxPoint x="1047" y="292.5" />
              <mxPoint x="1047" y="342.5" />
            </Array>
          </mxGeometry>
        </mxCell>
        <mxCell id="bVHdNsz0KWSQvc3xRIcT-35" value="" style="endArrow=classic;html=1;fontColor=#FF3333;edgeStyle=orthogonalEdgeStyle;elbow=vertical;curved=1;exitX=0.938;exitY=0.75;exitDx=0;exitDy=0;entryX=0;entryY=0.5;entryDx=0;entryDy=0;exitPerimeter=0;" parent="bVHdNsz0KWSQvc3xRIcT-1" source="bVHdNsz0KWSQvc3xRIcT-16" target="bVHdNsz0KWSQvc3xRIcT-15" edge="1">
          <mxGeometry width="50" height="50" relative="1" as="geometry">
            <mxPoint x="327" y="602.5" as="sourcePoint" />
            <mxPoint x="377" y="552.5" as="targetPoint" />
            <Array as="points">
              <mxPoint x="1077" y="212.5" />
              <mxPoint x="1077" y="342.5" />
            </Array>
          </mxGeometry>
        </mxCell>
        <mxCell id="bVHdNsz0KWSQvc3xRIcT-42" value="Assets" style="swimlane;fontStyle=0;childLayout=stackLayout;horizontal=1;startSize=26;fillColor=#fff2cc;horizontalStack=0;resizeParent=1;resizeParentMax=0;resizeLast=0;collapsible=1;marginBottom=0;swimlaneFillColor=#ffffff;align=center;fontSize=14;shadow=1;strokeColor=#d6b656;" parent="bVHdNsz0KWSQvc3xRIcT-1" vertex="1">
          <mxGeometry x="349.5" y="1002.5" width="310" height="118" as="geometry" />
        </mxCell>
        <mxCell id="bVHdNsz0KWSQvc3xRIcT-43" value="Description" style="shape=partialRectangle;top=0;left=0;right=0;bottom=1;align=left;verticalAlign=middle;fillColor=#fff2cc;spacingLeft=34;spacingRight=4;overflow=hidden;rotatable=0;points=[[0,0.5],[1,0.5]];portConstraint=eastwest;dropTarget=0;fontStyle=1;fontSize=12;strokeColor=#d6b656;" parent="bVHdNsz0KWSQvc3xRIcT-42" vertex="1">
          <mxGeometry y="26" width="310" height="30" as="geometry" />
        </mxCell>
        <mxCell id="bVHdNsz0KWSQvc3xRIcT-44" value="ID" style="shape=partialRectangle;top=0;left=0;bottom=0;fillColor=none;align=left;verticalAlign=middle;spacingLeft=4;spacingRight=4;overflow=hidden;rotatable=0;points=[];portConstraint=eastwest;part=1;fontSize=12;fontStyle=1" parent="bVHdNsz0KWSQvc3xRIcT-43" vertex="1" connectable="0">
          <mxGeometry width="30" height="30" as="geometry" />
        </mxCell>
        <mxCell id="bVHdNsz0KWSQvc3xRIcT-45" value="User Credentials" style="shape=partialRectangle;top=0;left=0;right=0;bottom=0;align=left;verticalAlign=top;fillColor=none;spacingLeft=34;spacingRight=4;overflow=hidden;rotatable=0;points=[[0,0.5],[1,0.5]];portConstraint=eastwest;dropTarget=0;fontSize=12;" parent="bVHdNsz0KWSQvc3xRIcT-42" vertex="1">
          <mxGeometry y="56" width="310" height="26" as="geometry" />
        </mxCell>
        <mxCell id="bVHdNsz0KWSQvc3xRIcT-46" value="A01" style="shape=partialRectangle;top=0;left=0;bottom=0;fillColor=none;align=left;verticalAlign=top;spacingLeft=4;spacingRight=4;overflow=hidden;rotatable=0;points=[];portConstraint=eastwest;part=1;fontSize=10;" parent="bVHdNsz0KWSQvc3xRIcT-45" vertex="1" connectable="0">
          <mxGeometry width="30" height="26" as="geometry" />
        </mxCell>
        <mxCell id="bVHdNsz0KWSQvc3xRIcT-47" value="Card Details" style="shape=partialRectangle;top=0;left=0;right=0;bottom=0;align=left;verticalAlign=top;fillColor=none;spacingLeft=34;spacingRight=4;overflow=hidden;rotatable=0;points=[[0,0.5],[1,0.5]];portConstraint=eastwest;dropTarget=0;fontSize=12;" parent="bVHdNsz0KWSQvc3xRIcT-42" vertex="1">
          <mxGeometry y="82" width="310" height="26" as="geometry" />
        </mxCell>
        <mxCell id="bVHdNsz0KWSQvc3xRIcT-48" value="A02" style="shape=partialRectangle;top=0;left=0;bottom=0;fillColor=none;align=left;verticalAlign=top;spacingLeft=4;spacingRight=4;overflow=hidden;rotatable=0;points=[];portConstraint=eastwest;part=1;fontSize=10;" parent="bVHdNsz0KWSQvc3xRIcT-47" vertex="1" connectable="0">
          <mxGeometry width="30" height="26" as="geometry" />
        </mxCell>
        <mxCell id="bVHdNsz0KWSQvc3xRIcT-51" value="" style="shape=partialRectangle;top=0;left=0;right=0;bottom=0;align=left;verticalAlign=top;fillColor=none;spacingLeft=34;spacingRight=4;overflow=hidden;rotatable=0;points=[[0,0.5],[1,0.5]];portConstraint=eastwest;dropTarget=0;fontSize=12;" parent="bVHdNsz0KWSQvc3xRIcT-42" vertex="1">
          <mxGeometry y="108" width="310" height="10" as="geometry" />
        </mxCell>
        <mxCell id="bVHdNsz0KWSQvc3xRIcT-52" value="" style="shape=partialRectangle;top=0;left=0;bottom=0;fillColor=none;align=left;verticalAlign=top;spacingLeft=4;spacingRight=4;overflow=hidden;rotatable=0;points=[];portConstraint=eastwest;part=1;fontSize=12;" parent="bVHdNsz0KWSQvc3xRIcT-51" vertex="1" connectable="0">
          <mxGeometry width="30" height="10" as="geometry" />
        </mxCell>
        <mxCell id="bVHdNsz0KWSQvc3xRIcT-53" value="Security Controls" style="swimlane;fontStyle=1;childLayout=stackLayout;horizontal=1;startSize=26;fillColor=#d5e8d4;horizontalStack=0;resizeParent=1;resizeParentMax=0;resizeLast=0;collapsible=1;marginBottom=0;swimlaneFillColor=#ffffff;align=center;fontSize=14;shadow=1;strokeColor=#82b366;" parent="bVHdNsz0KWSQvc3xRIcT-1" vertex="1">
          <mxGeometry x="921" y="992.5" width="312" height="160" as="geometry" />
        </mxCell>
        <mxCell id="bVHdNsz0KWSQvc3xRIcT-54" value="Description" style="shape=partialRectangle;top=0;left=0;right=0;bottom=1;align=left;verticalAlign=middle;fillColor=#d5e8d4;spacingLeft=34;spacingRight=4;overflow=hidden;rotatable=0;points=[[0,0.5],[1,0.5]];portConstraint=eastwest;dropTarget=0;fontStyle=1;fontSize=12;strokeColor=#82b366;" parent="bVHdNsz0KWSQvc3xRIcT-53" vertex="1">
          <mxGeometry y="26" width="312" height="30" as="geometry" />
        </mxCell>
        <mxCell id="bVHdNsz0KWSQvc3xRIcT-55" value="ID" style="shape=partialRectangle;top=0;left=0;bottom=0;fillColor=none;align=left;verticalAlign=middle;spacingLeft=4;spacingRight=4;overflow=hidden;rotatable=0;points=[];portConstraint=eastwest;part=1;fontSize=12;fontStyle=1" parent="bVHdNsz0KWSQvc3xRIcT-54" vertex="1" connectable="0">
          <mxGeometry width="30" height="30" as="geometry" />
        </mxCell>
        <mxCell id="bVHdNsz0KWSQvc3xRIcT-56" value="Authentication" style="shape=partialRectangle;top=0;left=0;right=0;bottom=0;align=left;verticalAlign=top;fillColor=none;spacingLeft=34;spacingRight=4;overflow=hidden;rotatable=0;points=[[0,0.5],[1,0.5]];portConstraint=eastwest;dropTarget=0;fontSize=12;" parent="bVHdNsz0KWSQvc3xRIcT-53" vertex="1">
          <mxGeometry y="56" width="312" height="26" as="geometry" />
        </mxCell>
        <mxCell id="bVHdNsz0KWSQvc3xRIcT-57" value="C01" style="shape=partialRectangle;top=0;left=0;bottom=0;fillColor=none;align=left;verticalAlign=top;spacingLeft=4;spacingRight=4;overflow=hidden;rotatable=0;points=[];portConstraint=eastwest;part=1;fontSize=10;" parent="bVHdNsz0KWSQvc3xRIcT-56" vertex="1" connectable="0">
          <mxGeometry width="30" height="26" as="geometry" />
        </mxCell>
        <mxCell id="bVHdNsz0KWSQvc3xRIcT-58" value="Password hashing" style="shape=partialRectangle;top=0;left=0;right=0;bottom=0;align=left;verticalAlign=top;fillColor=none;spacingLeft=34;spacingRight=4;overflow=hidden;rotatable=0;points=[[0,0.5],[1,0.5]];portConstraint=eastwest;dropTarget=0;fontSize=12;" parent="bVHdNsz0KWSQvc3xRIcT-53" vertex="1">
          <mxGeometry y="82" width="312" height="26" as="geometry" />
        </mxCell>
        <mxCell id="bVHdNsz0KWSQvc3xRIcT-59" value="C02" style="shape=partialRectangle;top=0;left=0;bottom=0;fillColor=none;align=left;verticalAlign=top;spacingLeft=4;spacingRight=4;overflow=hidden;rotatable=0;points=[];portConstraint=eastwest;part=1;fontSize=10;" parent="bVHdNsz0KWSQvc3xRIcT-58" vertex="1" connectable="0">
          <mxGeometry width="30" height="26" as="geometry" />
        </mxCell>
        <mxCell id="bVHdNsz0KWSQvc3xRIcT-60" value="TLS" style="shape=partialRectangle;top=0;left=0;right=0;bottom=0;align=left;verticalAlign=top;fillColor=none;spacingLeft=34;spacingRight=4;overflow=hidden;rotatable=0;points=[[0,0.5],[1,0.5]];portConstraint=eastwest;dropTarget=0;fontSize=12;" parent="bVHdNsz0KWSQvc3xRIcT-53" vertex="1">
          <mxGeometry y="108" width="312" height="26" as="geometry" />
        </mxCell>
        <mxCell id="bVHdNsz0KWSQvc3xRIcT-61" value="C03" style="shape=partialRectangle;top=0;left=0;bottom=0;fillColor=none;align=left;verticalAlign=top;spacingLeft=4;spacingRight=4;overflow=hidden;rotatable=0;points=[];portConstraint=eastwest;part=1;fontSize=10;" parent="bVHdNsz0KWSQvc3xRIcT-60" vertex="1" connectable="0">
          <mxGeometry width="30" height="26" as="geometry" />
        </mxCell>
        <mxCell id="bVHdNsz0KWSQvc3xRIcT-62" value="" style="shape=partialRectangle;top=0;left=0;right=0;bottom=0;align=left;verticalAlign=top;fillColor=none;spacingLeft=34;spacingRight=4;overflow=hidden;rotatable=0;points=[[0,0.5],[1,0.5]];portConstraint=eastwest;dropTarget=0;fontSize=12;" parent="bVHdNsz0KWSQvc3xRIcT-53" vertex="1">
          <mxGeometry y="134" width="312" height="26" as="geometry" />
        </mxCell>
        <mxCell id="bVHdNsz0KWSQvc3xRIcT-63" value="" style="shape=partialRectangle;top=0;left=0;bottom=0;fillColor=none;align=left;verticalAlign=top;spacingLeft=4;spacingRight=4;overflow=hidden;rotatable=0;points=[];portConstraint=eastwest;part=1;fontSize=12;" parent="bVHdNsz0KWSQvc3xRIcT-62" vertex="1" connectable="0">
          <mxGeometry width="30" height="26" as="geometry" />
        </mxCell>
        <UserObject label="&lt;b&gt;C03&lt;/b&gt;" placeholders="1" name="Variable" id="bVHdNsz0KWSQvc3xRIcT-80">
          <mxCell style="text;html=1;strokeColor=#82b366;fillColor=#d5e8d4;align=center;verticalAlign=middle;whiteSpace=wrap;overflow=hidden;shadow=1;fontSize=10;" parent="bVHdNsz0KWSQvc3xRIcT-1" vertex="1">
            <mxGeometry x="702" y="382.5" width="30" height="20" as="geometry" />
          </mxCell>
        </UserObject>
        <UserObject label="&lt;b&gt;C01&lt;/b&gt;" placeholders="1" name="Variable" id="bVHdNsz0KWSQvc3xRIcT-81">
          <mxCell style="text;html=1;strokeColor=#82b366;fillColor=#d5e8d4;align=center;verticalAlign=middle;whiteSpace=wrap;overflow=hidden;shadow=1;fontSize=10;" parent="bVHdNsz0KWSQvc3xRIcT-1" vertex="1">
            <mxGeometry x="736" y="432.5" width="30" height="20" as="geometry" />
          </mxCell>
        </UserObject>
        <UserObject label="&lt;b&gt;A01&lt;/b&gt;" placeholders="1" name="Variable" id="bVHdNsz0KWSQvc3xRIcT-82">
          <mxCell style="text;html=1;strokeColor=#d6b656;fillColor=#fff2cc;align=center;verticalAlign=middle;whiteSpace=wrap;overflow=hidden;shadow=1;fontSize=10;" parent="bVHdNsz0KWSQvc3xRIcT-1" vertex="1">
            <mxGeometry x="711" y="462.5" width="40" height="20" as="geometry" />
          </mxCell>
        </UserObject>
        <UserObject label="&lt;b&gt;A02&lt;/b&gt;" placeholders="1" name="Variable" id="bVHdNsz0KWSQvc3xRIcT-83">
          <mxCell style="text;html=1;strokeColor=#d6b656;fillColor=#fff2cc;align=center;verticalAlign=middle;whiteSpace=wrap;overflow=hidden;shadow=1;fontSize=10;" parent="bVHdNsz0KWSQvc3xRIcT-1" vertex="1">
            <mxGeometry x="726" y="492.5" width="40" height="20" as="geometry" />
          </mxCell>
        </UserObject>
        <UserObject label="&lt;b&gt;A01&lt;/b&gt;" placeholders="1" name="Variable" id="bVHdNsz0KWSQvc3xRIcT-84">
          <mxCell style="text;html=1;strokeColor=#d6b656;fillColor=#fff2cc;align=center;verticalAlign=middle;whiteSpace=wrap;overflow=hidden;shadow=1;fontSize=10;" parent="bVHdNsz0KWSQvc3xRIcT-1" vertex="1">
            <mxGeometry x="844.5" y="257.5" width="40" height="20" as="geometry" />
          </mxCell>
        </UserObject>
        <UserObject label="&lt;b&gt;A01&lt;/b&gt;" placeholders="1" name="Variable" id="bVHdNsz0KWSQvc3xRIcT-85">
          <mxCell style="text;html=1;strokeColor=#d6b656;fillColor=#fff2cc;align=center;verticalAlign=middle;whiteSpace=wrap;overflow=hidden;shadow=1;fontSize=10;" parent="bVHdNsz0KWSQvc3xRIcT-1" vertex="1">
            <mxGeometry x="1267" y="252.5" width="40" height="20" as="geometry" />
          </mxCell>
        </UserObject>
        <UserObject label="&lt;b&gt;A02&lt;/b&gt;" placeholders="1" name="Variable" id="bVHdNsz0KWSQvc3xRIcT-86">
          <mxCell style="text;html=1;strokeColor=#d6b656;fillColor=#fff2cc;align=center;verticalAlign=middle;whiteSpace=wrap;overflow=hidden;shadow=1;fontSize=10;" parent="bVHdNsz0KWSQvc3xRIcT-1" vertex="1">
            <mxGeometry x="787" y="152.5" width="40" height="20" as="geometry" />
          </mxCell>
        </UserObject>
        <UserObject label="&lt;b&gt;A02&lt;/b&gt;" placeholders="1" name="Variable" id="bVHdNsz0KWSQvc3xRIcT-87">
          <mxCell style="text;html=1;strokeColor=#d6b656;fillColor=#fff2cc;align=center;verticalAlign=middle;whiteSpace=wrap;overflow=hidden;shadow=1;fontSize=10;" parent="bVHdNsz0KWSQvc3xRIcT-1" vertex="1">
            <mxGeometry x="837" y="487.5" width="40" height="20" as="geometry" />
          </mxCell>
        </UserObject>
        <UserObject label="&lt;b&gt;A01&lt;/b&gt;" placeholders="1" name="Variable" id="bVHdNsz0KWSQvc3xRIcT-88">
          <mxCell style="text;html=1;strokeColor=#d6b656;fillColor=#fff2cc;align=center;verticalAlign=middle;whiteSpace=wrap;overflow=hidden;shadow=1;fontSize=10;" parent="bVHdNsz0KWSQvc3xRIcT-1" vertex="1">
            <mxGeometry x="884.5" y="497.5" width="40" height="20" as="geometry" />
          </mxCell>
        </UserObject>
        <UserObject label="&lt;b&gt;C02&lt;/b&gt;" placeholders="1" name="Variable" id="bVHdNsz0KWSQvc3xRIcT-89">
          <mxCell style="text;html=1;strokeColor=#82b366;fillColor=#d5e8d4;align=center;verticalAlign=middle;whiteSpace=wrap;overflow=hidden;shadow=1;fontSize=10;" parent="bVHdNsz0KWSQvc3xRIcT-1" vertex="1">
            <mxGeometry x="1277" y="282.5" width="30" height="20" as="geometry" />
          </mxCell>
        </UserObject>
        <mxCell id="P-u2qsZgEJolO6gB0ZuT-0" value="Website" style="ellipse;whiteSpace=wrap;html=1;aspect=fixed;" vertex="1" parent="bVHdNsz0KWSQvc3xRIcT-1">
          <mxGeometry x="737" y="592.5" width="80" height="80" as="geometry" />
        </mxCell>
        <mxCell id="P-u2qsZgEJolO6gB0ZuT-3" value="" style="endArrow=classic;startArrow=classic;html=1;rounded=0;entryX=0.5;entryY=1;entryDx=0;entryDy=0;" edge="1" parent="bVHdNsz0KWSQvc3xRIcT-1" source="P-u2qsZgEJolO6gB0ZuT-0" target="bVHdNsz0KWSQvc3xRIcT-7">
          <mxGeometry width="50" height="50" relative="1" as="geometry">
            <mxPoint x="787" y="422.5" as="sourcePoint" />
            <mxPoint x="837" y="372.5" as="targetPoint" />
          </mxGeometry>
        </mxCell>
        <mxCell id="P-u2qsZgEJolO6gB0ZuT-4" value="HTTPS" style="edgeLabel;html=1;align=center;verticalAlign=middle;resizable=0;points=[];" vertex="1" connectable="0" parent="P-u2qsZgEJolO6gB0ZuT-3">
          <mxGeometry x="0.25" y="-1" relative="1" as="geometry">
            <mxPoint x="-1" y="10" as="offset" />
          </mxGeometry>
        </mxCell>
        <mxCell id="P-u2qsZgEJolO6gB0ZuT-5" value="Wordpress Users" style="shape=partialRectangle;whiteSpace=wrap;html=1;left=0;right=0;fillColor=none;" vertex="1" parent="bVHdNsz0KWSQvc3xRIcT-1">
          <mxGeometry x="1177" y="572.5" width="120" height="30" as="geometry" />
        </mxCell>
        <mxCell id="P-u2qsZgEJolO6gB0ZuT-6" value="Organizational Information" style="shape=partialRectangle;whiteSpace=wrap;html=1;left=0;right=0;fillColor=none;" vertex="1" parent="bVHdNsz0KWSQvc3xRIcT-1">
          <mxGeometry x="1177" y="662.5" width="120" height="30" as="geometry" />
        </mxCell>
        <mxCell id="P-u2qsZgEJolO6gB0ZuT-7" value="Post, Pages, Content links" style="shape=partialRectangle;whiteSpace=wrap;html=1;left=0;right=0;fillColor=none;" vertex="1" parent="bVHdNsz0KWSQvc3xRIcT-1">
          <mxGeometry x="1177" y="742.5" width="120" height="30" as="geometry" />
        </mxCell>
        <mxCell id="P-u2qsZgEJolO6gB0ZuT-8" value="Site-Wide Setting" style="shape=partialRectangle;whiteSpace=wrap;html=1;left=0;right=0;fillColor=none;" vertex="1" parent="bVHdNsz0KWSQvc3xRIcT-1">
          <mxGeometry x="1177" y="822.5" width="120" height="30" as="geometry" />
        </mxCell>
        <mxCell id="P-u2qsZgEJolO6gB0ZuT-9" value="Admission Portal Database" style="html=1;fontColor=#FF3333;fontStyle=1;align=left;verticalAlign=top;spacing=0;labelBorderColor=none;fillColor=none;dashed=1;strokeWidth=2;strokeColor=#FF3333;spacingLeft=4;spacingTop=-3;" vertex="1" parent="bVHdNsz0KWSQvc3xRIcT-1">
          <mxGeometry x="1115.5" y="147.5" width="270" height="360" as="geometry" />
        </mxCell>
        <mxCell id="P-u2qsZgEJolO6gB0ZuT-10" value="Wordpress Database" style="html=1;fontColor=#FF3333;fontStyle=1;align=left;verticalAlign=top;spacing=0;labelBorderColor=none;fillColor=none;dashed=1;strokeWidth=2;strokeColor=#FF3333;spacingLeft=4;spacingTop=-3;" vertex="1" parent="bVHdNsz0KWSQvc3xRIcT-1">
          <mxGeometry x="1115.5" y="532.5" width="270" height="360" as="geometry" />
        </mxCell>
        <UserObject label="&lt;b&gt;A01&lt;/b&gt;" placeholders="1" name="Variable" id="P-u2qsZgEJolO6gB0ZuT-12">
          <mxCell style="text;html=1;strokeColor=#d6b656;fillColor=#fff2cc;align=center;verticalAlign=middle;whiteSpace=wrap;overflow=hidden;shadow=1;fontSize=10;" vertex="1" parent="bVHdNsz0KWSQvc3xRIcT-1">
            <mxGeometry x="1277" y="562.5" width="40" height="20" as="geometry" />
          </mxCell>
        </UserObject>
        <UserObject label="&lt;b&gt;C02&lt;/b&gt;" placeholders="1" name="Variable" id="P-u2qsZgEJolO6gB0ZuT-13">
          <mxCell style="text;html=1;strokeColor=#82b366;fillColor=#d5e8d4;align=center;verticalAlign=middle;whiteSpace=wrap;overflow=hidden;shadow=1;fontSize=10;" vertex="1" parent="bVHdNsz0KWSQvc3xRIcT-1">
            <mxGeometry x="1287" y="592.5" width="30" height="20" as="geometry" />
          </mxCell>
        </UserObject>
        <mxCell id="P-u2qsZgEJolO6gB0ZuT-14" value="Users API" style="ellipse;whiteSpace=wrap;html=1;aspect=fixed;" vertex="1" parent="bVHdNsz0KWSQvc3xRIcT-1">
          <mxGeometry x="864.5" y="682.5" width="80" height="80" as="geometry" />
        </mxCell>
        <mxCell id="P-u2qsZgEJolO6gB0ZuT-16" value="" style="endArrow=classic;startArrow=classic;html=1;rounded=0;edgeStyle=orthogonalEdgeStyle;curved=1;exitX=0;exitY=0.5;exitDx=0;exitDy=0;" edge="1" parent="bVHdNsz0KWSQvc3xRIcT-1" source="P-u2qsZgEJolO6gB0ZuT-14" target="P-u2qsZgEJolO6gB0ZuT-0">
          <mxGeometry width="50" height="50" relative="1" as="geometry">
            <mxPoint x="807" y="732.5" as="sourcePoint" />
            <mxPoint x="857" y="682.5" as="targetPoint" />
          </mxGeometry>
        </mxCell>
        <mxCell id="P-u2qsZgEJolO6gB0ZuT-21" value="" style="endArrow=classic;startArrow=classic;html=1;rounded=0;curved=1;" edge="1" parent="bVHdNsz0KWSQvc3xRIcT-1">
          <mxGeometry width="50" height="50" relative="1" as="geometry">
            <mxPoint x="944.5" y="722.5" as="sourcePoint" />
            <mxPoint x="1174.5" y="592.5" as="targetPoint" />
            <Array as="points">
              <mxPoint x="1034.5" y="732.5" />
              <mxPoint x="1034.5" y="592.5" />
            </Array>
          </mxGeometry>
        </mxCell>
        <mxCell id="P-u2qsZgEJolO6gB0ZuT-23" value="" style="endArrow=classic;startArrow=classic;html=1;rounded=0;curved=1;entryX=0.228;entryY=0.389;entryDx=0;entryDy=0;entryPerimeter=0;" edge="1" parent="bVHdNsz0KWSQvc3xRIcT-1">
          <mxGeometry width="50" height="50" relative="1" as="geometry">
            <mxPoint x="944.5" y="722.46" as="sourcePoint" />
            <mxPoint x="1177.06" y="672.5" as="targetPoint" />
            <Array as="points">
              <mxPoint x="1007" y="732.5" />
              <mxPoint x="1077" y="672.5" />
            </Array>
          </mxGeometry>
        </mxCell>
        <mxCell id="P-u2qsZgEJolO6gB0ZuT-25" value="" style="curved=1;endArrow=classic;html=1;rounded=0;" edge="1" parent="bVHdNsz0KWSQvc3xRIcT-1">
          <mxGeometry width="50" height="50" relative="1" as="geometry">
            <mxPoint x="947" y="722.5" as="sourcePoint" />
            <mxPoint x="1175.5" y="755.1430517711171" as="targetPoint" />
            <Array as="points">
              <mxPoint x="1057" y="732.5" />
              <mxPoint x="1117" y="742.5" />
              <mxPoint x="1127" y="752.5" />
            </Array>
          </mxGeometry>
        </mxCell>
        <mxCell id="P-u2qsZgEJolO6gB0ZuT-26" value="" style="curved=1;endArrow=classic;html=1;rounded=0;" edge="1" parent="bVHdNsz0KWSQvc3xRIcT-1">
          <mxGeometry width="50" height="50" relative="1" as="geometry">
            <mxPoint x="947" y="722.5" as="sourcePoint" />
            <mxPoint x="1177" y="839.0853658536586" as="targetPoint" />
            <Array as="points">
              <mxPoint x="1027" y="732.5" />
              <mxPoint x="1107" y="832.5" />
              <mxPoint x="1127" y="839.5" />
            </Array>
          </mxGeometry>
        </mxCell>
        <UserObject label="&lt;b&gt;A01&lt;/b&gt;" placeholders="1" name="Variable" id="P-u2qsZgEJolO6gB0ZuT-31">
          <mxCell style="text;html=1;strokeColor=#d6b656;fillColor=#fff2cc;align=center;verticalAlign=middle;whiteSpace=wrap;overflow=hidden;shadow=1;fontSize=10;" vertex="1" parent="bVHdNsz0KWSQvc3xRIcT-1">
            <mxGeometry x="864.5" y="672.5" width="40" height="20" as="geometry" />
          </mxCell>
        </UserObject>
        <UserObject label="&lt;b&gt;C01&lt;/b&gt;" placeholders="1" name="Variable" id="P-u2qsZgEJolO6gB0ZuT-32">
          <mxCell style="text;html=1;strokeColor=#82b366;fillColor=#d5e8d4;align=center;verticalAlign=middle;whiteSpace=wrap;overflow=hidden;shadow=1;fontSize=10;" vertex="1" parent="bVHdNsz0KWSQvc3xRIcT-1">
            <mxGeometry x="787" y="597.5" width="30" height="20" as="geometry" />
          </mxCell>
        </UserObject>
        <UserObject label="&lt;b&gt;A01&lt;/b&gt;" placeholders="1" name="Variable" id="P-u2qsZgEJolO6gB0ZuT-34">
          <mxCell style="text;html=1;strokeColor=#d6b656;fillColor=#fff2cc;align=center;verticalAlign=middle;whiteSpace=wrap;overflow=hidden;shadow=1;fontSize=10;" vertex="1" parent="bVHdNsz0KWSQvc3xRIcT-1">
            <mxGeometry x="787" y="652.5" width="40" height="20" as="geometry" />
          </mxCell>
        </UserObject>
      </root>
    </mxGraphModel>
  </diagram>
  <diagram id="IiltKbKD5ddq5IhYbK3Y" name="PFD" />
  <diagram id="DFwIx7VVaJuNNy6AmM6M" name="Attack Tree">
    <mxGraphModel dx="1368" dy="754" grid="1" gridSize="10" guides="1" tooltips="1" connect="1" arrows="1" fold="1" page="1" pageScale="1" pageWidth="827" pageHeight="1169" math="0" shadow="0">
      <root>
        <mxCell id="0" />
        <mxCell id="1" parent="0" />
        <mxCell id="0dLORehoDUG8drkRdSyY-1" value="Full Access to &lt;br&gt;User&#39;s WiFi" style="shape=xor;whiteSpace=wrap;html=1;fillColor=#d5e8d4;strokeColor=#82b366;direction=north;" parent="1" vertex="1">
          <mxGeometry x="370" y="310" width="120" height="80" as="geometry" />
        </mxCell>
        <mxCell id="0dLORehoDUG8drkRdSyY-2" value="Access Secured Network" style="shape=xor;whiteSpace=wrap;html=1;fillColor=#d5e8d4;strokeColor=#82b366;direction=north;" parent="1" vertex="1">
          <mxGeometry x="500" y="450" width="120" height="80" as="geometry" />
        </mxCell>
        <mxCell id="0dLORehoDUG8drkRdSyY-3" value="" style="edgeStyle=orthogonalEdgeStyle;rounded=0;orthogonalLoop=1;jettySize=auto;html=1;exitX=0.25;exitY=0.5;exitDx=0;exitDy=0;exitPerimeter=0;entryX=1;entryY=0.5;entryDx=0;entryDy=0;entryPerimeter=0;" parent="1" source="0dLORehoDUG8drkRdSyY-1" target="0dLORehoDUG8drkRdSyY-2" edge="1">
          <mxGeometry relative="1" as="geometry">
            <Array as="points">
              <mxPoint x="430" y="420" />
              <mxPoint x="560" y="420" />
            </Array>
          </mxGeometry>
        </mxCell>
        <mxCell id="0dLORehoDUG8drkRdSyY-4" value="Access Unsecured Network" style="shape=xor;whiteSpace=wrap;html=1;fillColor=#d5e8d4;strokeColor=#82b366;direction=north;" parent="1" vertex="1">
          <mxGeometry x="180" y="450" width="120" height="80" as="geometry" />
        </mxCell>
        <mxCell id="0dLORehoDUG8drkRdSyY-5" value="" style="edgeStyle=orthogonalEdgeStyle;rounded=0;orthogonalLoop=1;jettySize=auto;html=1;exitX=0.25;exitY=0.5;exitDx=0;exitDy=0;exitPerimeter=0;entryX=1;entryY=0.5;entryDx=0;entryDy=0;entryPerimeter=0;" parent="1" source="0dLORehoDUG8drkRdSyY-1" target="0dLORehoDUG8drkRdSyY-4" edge="1">
          <mxGeometry relative="1" as="geometry">
            <Array as="points">
              <mxPoint x="430" y="420" />
              <mxPoint x="240" y="420" />
            </Array>
          </mxGeometry>
        </mxCell>
        <mxCell id="0dLORehoDUG8drkRdSyY-8" value="App" style="rounded=0;whiteSpace=wrap;html=1;fillColor=#f5f5f5;strokeColor=#666666;" parent="1" vertex="1">
          <mxGeometry x="500" y="580" width="120" height="80" as="geometry" />
        </mxCell>
        <mxCell id="0dLORehoDUG8drkRdSyY-9" value="" style="edgeStyle=orthogonalEdgeStyle;rounded=0;orthogonalLoop=1;jettySize=auto;html=1;exitX=0.25;exitY=0.5;exitDx=0;exitDy=0;exitPerimeter=0;" parent="1" source="0dLORehoDUG8drkRdSyY-2" target="0dLORehoDUG8drkRdSyY-8" edge="1">
          <mxGeometry relative="1" as="geometry" />
        </mxCell>
        <mxCell id="0dLORehoDUG8drkRdSyY-10" value="Phishing" style="rounded=0;whiteSpace=wrap;html=1;fillColor=#f5f5f5;strokeColor=#666666;" parent="1" vertex="1">
          <mxGeometry x="630" y="580" width="120" height="80" as="geometry" />
        </mxCell>
        <mxCell id="0dLORehoDUG8drkRdSyY-11" value="" style="edgeStyle=orthogonalEdgeStyle;rounded=0;orthogonalLoop=1;jettySize=auto;html=1;exitX=0.25;exitY=0.5;exitDx=0;exitDy=0;exitPerimeter=0;" parent="1" source="0dLORehoDUG8drkRdSyY-2" target="0dLORehoDUG8drkRdSyY-10" edge="1">
          <mxGeometry relative="1" as="geometry">
            <Array as="points">
              <mxPoint x="560" y="540" />
              <mxPoint x="690" y="540" />
            </Array>
          </mxGeometry>
        </mxCell>
        <mxCell id="0dLORehoDUG8drkRdSyY-12" value="Man in the Middle" style="rounded=0;whiteSpace=wrap;html=1;fillColor=#f5f5f5;strokeColor=#666666;" parent="1" vertex="1">
          <mxGeometry x="240" y="580" width="120" height="80" as="geometry" />
        </mxCell>
        <mxCell id="0dLORehoDUG8drkRdSyY-13" value="" style="edgeStyle=orthogonalEdgeStyle;rounded=0;orthogonalLoop=1;jettySize=auto;html=1;exitX=0.25;exitY=0.5;exitDx=0;exitDy=0;exitPerimeter=0;" parent="1" source="0dLORehoDUG8drkRdSyY-4" target="0dLORehoDUG8drkRdSyY-12" edge="1">
          <mxGeometry relative="1" as="geometry">
            <Array as="points">
              <mxPoint x="240" y="540" />
              <mxPoint x="300" y="540" />
            </Array>
          </mxGeometry>
        </mxCell>
        <mxCell id="0dLORehoDUG8drkRdSyY-14" value="Packet Sniffing" style="rounded=0;whiteSpace=wrap;html=1;fillColor=#f5f5f5;strokeColor=#666666;" parent="1" vertex="1">
          <mxGeometry x="110" y="580" width="120" height="80" as="geometry" />
        </mxCell>
        <mxCell id="0dLORehoDUG8drkRdSyY-15" value="" style="edgeStyle=orthogonalEdgeStyle;rounded=0;orthogonalLoop=1;jettySize=auto;html=1;exitX=0.25;exitY=0.5;exitDx=0;exitDy=0;exitPerimeter=0;" parent="1" source="0dLORehoDUG8drkRdSyY-4" target="0dLORehoDUG8drkRdSyY-14" edge="1">
          <mxGeometry relative="1" as="geometry">
            <Array as="points">
              <mxPoint x="240" y="540" />
              <mxPoint x="170" y="540" />
            </Array>
          </mxGeometry>
        </mxCell>
        <mxCell id="0dLORehoDUG8drkRdSyY-16" value="Learn Password" style="shape=xor;whiteSpace=wrap;html=1;fillColor=#d5e8d4;strokeColor=#82b366;direction=north;" parent="1" vertex="1">
          <mxGeometry x="370" y="580" width="120" height="80" as="geometry" />
        </mxCell>
        <mxCell id="0dLORehoDUG8drkRdSyY-17" value="" style="edgeStyle=orthogonalEdgeStyle;rounded=0;orthogonalLoop=1;jettySize=auto;html=1;exitX=0.25;exitY=0.5;exitDx=0;exitDy=0;exitPerimeter=0;" parent="1" source="0dLORehoDUG8drkRdSyY-2" target="0dLORehoDUG8drkRdSyY-16" edge="1">
          <mxGeometry relative="1" as="geometry">
            <Array as="points">
              <mxPoint x="560" y="540" />
              <mxPoint x="430" y="540" />
            </Array>
          </mxGeometry>
        </mxCell>
        <mxCell id="0dLORehoDUG8drkRdSyY-18" value="Written Password" style="rounded=0;whiteSpace=wrap;html=1;fillColor=#f5f5f5;strokeColor=#666666;" parent="1" vertex="1">
          <mxGeometry x="240" y="720" width="120" height="80" as="geometry" />
        </mxCell>
        <mxCell id="0dLORehoDUG8drkRdSyY-19" value="" style="edgeStyle=orthogonalEdgeStyle;rounded=0;orthogonalLoop=1;jettySize=auto;html=1;exitX=0.25;exitY=0.5;exitDx=0;exitDy=0;exitPerimeter=0;" parent="1" source="0dLORehoDUG8drkRdSyY-16" target="0dLORehoDUG8drkRdSyY-18" edge="1">
          <mxGeometry relative="1" as="geometry">
            <Array as="points">
              <mxPoint x="430" y="690" />
              <mxPoint x="300" y="690" />
            </Array>
          </mxGeometry>
        </mxCell>
        <mxCell id="0dLORehoDUG8drkRdSyY-22" value="Get Password From User" style="shape=xor;whiteSpace=wrap;html=1;fillColor=#d5e8d4;strokeColor=#82b366;direction=north;" parent="1" vertex="1">
          <mxGeometry x="370" y="720" width="120" height="80" as="geometry" />
        </mxCell>
        <mxCell id="0dLORehoDUG8drkRdSyY-23" value="" style="edgeStyle=orthogonalEdgeStyle;rounded=0;orthogonalLoop=1;jettySize=auto;html=1;exitX=0.25;exitY=0.5;exitDx=0;exitDy=0;exitPerimeter=0;" parent="1" source="0dLORehoDUG8drkRdSyY-16" target="0dLORehoDUG8drkRdSyY-22" edge="1">
          <mxGeometry relative="1" as="geometry" />
        </mxCell>
        <mxCell id="0dLORehoDUG8drkRdSyY-24" value="Threaten" style="rounded=0;whiteSpace=wrap;html=1;fillColor=#f5f5f5;strokeColor=#666666;" parent="1" vertex="1">
          <mxGeometry x="370" y="860" width="120" height="80" as="geometry" />
        </mxCell>
        <mxCell id="0dLORehoDUG8drkRdSyY-25" value="" style="edgeStyle=orthogonalEdgeStyle;rounded=0;orthogonalLoop=1;jettySize=auto;html=1;exitX=0.25;exitY=0.5;exitDx=0;exitDy=0;exitPerimeter=0;" parent="1" source="0dLORehoDUG8drkRdSyY-22" target="0dLORehoDUG8drkRdSyY-24" edge="1">
          <mxGeometry relative="1" as="geometry" />
        </mxCell>
        <mxCell id="0dLORehoDUG8drkRdSyY-26" value="Bribe" style="rounded=0;whiteSpace=wrap;html=1;fillColor=#f5f5f5;strokeColor=#666666;" parent="1" vertex="1">
          <mxGeometry x="240" y="860" width="120" height="80" as="geometry" />
        </mxCell>
        <mxCell id="0dLORehoDUG8drkRdSyY-27" value="" style="edgeStyle=orthogonalEdgeStyle;rounded=0;orthogonalLoop=1;jettySize=auto;html=1;exitX=0.25;exitY=0.5;exitDx=0;exitDy=0;exitPerimeter=0;" parent="1" source="0dLORehoDUG8drkRdSyY-22" target="0dLORehoDUG8drkRdSyY-26" edge="1">
          <mxGeometry relative="1" as="geometry">
            <Array as="points">
              <mxPoint x="430" y="820" />
              <mxPoint x="300" y="820" />
            </Array>
          </mxGeometry>
        </mxCell>
        <mxCell id="0dLORehoDUG8drkRdSyY-28" value="Blackmail" style="rounded=0;whiteSpace=wrap;html=1;fillColor=#f5f5f5;strokeColor=#666666;" parent="1" vertex="1">
          <mxGeometry x="500" y="860" width="120" height="80" as="geometry" />
        </mxCell>
        <mxCell id="0dLORehoDUG8drkRdSyY-29" value="" style="edgeStyle=orthogonalEdgeStyle;rounded=0;orthogonalLoop=1;jettySize=auto;html=1;exitX=0.25;exitY=0.5;exitDx=0;exitDy=0;exitPerimeter=0;" parent="1" source="0dLORehoDUG8drkRdSyY-22" target="0dLORehoDUG8drkRdSyY-28" edge="1">
          <mxGeometry relative="1" as="geometry">
            <Array as="points">
              <mxPoint x="430" y="820" />
              <mxPoint x="560" y="820" />
            </Array>
          </mxGeometry>
        </mxCell>
      </root>
    </mxGraphModel>
  </diagram>
</mxfile>
